/* XPM */
static const char *editicon[]={
"16 16 11 1",
"# c None",
"a c #000080",
"c c #0000c0",
"d c #0000ff",
"e c #0080ff",
"h c #00c000",
"i c #00ff00",
". c #303030",
"g c #585858",
"b c #808080",
"f c #ffffff",
"...##a...aa#####",
".bbaacbb.ccaa###",
".bbccdbb.deeca##",
".bbdddbb.ddefca#",
".bbgggbb.dddeea#",
"..bbbbb..ddddeca",
"ac.bbb.dddddddca",
"ac.bbb.ccddddcca",
"ah.bbb.hhcccchha",
"ah.bbb.iihhhhiha",
"ah.bbb.iiiiiiiha",
"#a.bbb.iiiiiiha#",
"#a.bbb.iiiiiiha#",
"##.b.b.iiiihha##",
"##.bbb.hhhhaa###",
"###...aaaaa#####"};
