/* XPM */
static const char *filesavegroup[]={
"14 14 7 1",
"b c None",
"e c #000000",
". c #040404",
"d c #585858",
"# c #808080",
"c c #c3c3c3",
"a c #ffffff",
"..............",
".#.aaaaaaaa.b.",
".#.acccccca...",
".#.aaaaaaaa.d.",
".#.acccaaaa.d.",
".#.aaaaaaaa.d.",
".#.aaaaaaaa.d.",
".##......aaaaa",
".#####dddadeed",
".##......aeaae",
".dd......aeaae",
".dd......aeaae",
".dd......aeaae",
"b........adeed"};
