/* XPM */
static const char *fileopen[]={
"16 13 5 1",
"# c None",
". c #404000",
"c c #c0c000",
"b c #ffff00",
"a c #ffffc0",
"....############",
".aaa.###########",
".aaa.......#####",
".aaaaaaaaaa.####",
".aaa...........#",
".aa.aaaaaaaaab.#",
".aa.abbbbbbbbc.#",
".a.abbbbbbbbc.##",
".a.abbbbbbbbc.##",
"..abbbbbbbbc.###",
"..abbbbbbbbc.###",
".bbcccccccc.####",
"............####"};
