/* XPM */
static const char *fileopen[]={
"16 16 5 1",
"# c None",
". c #404000",
"c c #c0c000",
"b c #ffff00",
"a c #ffffc0",
"....############",
".aaa.###########",
".aaa.###########",
".aaa........####",
".aaaaaaaaaaa.###",
".aa.............",
".aa.aaaabbbbbbb.",
".aa.abbbbbbbbbb.",
".a.aabbbbbbbbb.#",
".a.abbbbbbbbbb.#",
".a.bbbbbbbbbbb.#",
"..bbbbbbbbbbc.##",
"..bbbbbbbbbbc.##",
"..bbbbbbbbbcc.##",
".bbbbbbccccc.###",
".............###"};
