/* XPM */
static const char *fileopen[]={
"16 13 6 1",
"# c None",
". c #000000",
"a c #c0c000",
"b c #ffff00",
"d c #ffffc0",
"c c #ffffff",
".....###########",
".aaa.###########",
".aaa........####",
".aaaaaaaaaa.####",
".aaa...........#",
".aa.abbbbbbbaa.#",
".aa.bcccccdbaa.#",
".a.abccdddbaa.##",
".a.bcccdbbbaa.##",
"..abcddbbbaa.###",
"..bddbbbbaaa.###",
".abbbbaaaaa.####",
"............####"};
