/* XPM */
static const char *manual[]={
"16 16 7 1",
"a c None",
". c #000080",
"# c #808000",
"e c #c0c000",
"d c #ffff00",
"b c #ffffc0",
"c c #ffffff",
".##aaaaaaaaaaaaa",
".#b##aaa#####aaa",
".#bbb#a#bbcc#aaa",
".#bbbb#bbbbc#...",
".#bbbb#dbbcc#eb.",
".#bbbb#bbbbc#eb.",
".#bbbb#dbbcc#eb.",
".#bbbb#bbbbc#eb.",
".#bbbb#dbbcc#eb.",
".#bbbb#bbbbc#eb.",
".#bbbb#dbbcc#eb.",
"..bbbb#bbbbc#eb.",
"....bb#db####eb.",
"aa....#b#eeeeeb.",
"aaaa............",
"aaaaaa...aaaaaaa"};
