/* XPM */
static const char *tutorial[]={
"16 16 9 1",
"# c None",
"e c #000080",
". c #303030",
"b c #808000",
"a c #808080",
"f c #c0c000",
"g c #ffff00",
"c c #ffffc0",
"d c #ffffff",
"...###...#######",
".a.bb#.a.bbbb###",
".a.ccb.a.cddb###",
".a.ccc.a.ccdbeee",
".aa...aa.cddbfce",
"..aaaaa..ccdbfce",
"eb.aaa.gccddbfce",
"eb.aaa.ccccdbfce",
"eb.aaa.gccddbfce",
"eb.aaa.ccccdbfce",
"eb.aaa.gccddbfce",
"ee.aaa.ccccdbfce",
"ee.aaa.gcbbbbfce",
"##.a.a.cbfffffce",
"##.aaa.eeeeeeeee",
"###...eee#######"};
