/* XPM */
static const char *workloadgroup[]={
"16 16 7 1",
"# c None",
"d c #000000",
". c #404000",
"e c #c0c000",
"b c #ffff00",
"a c #ffffc0",
"c c #ffffff",
"....############",
".aaa.###########",
".aaa.###########",
".aaa........####",
".aaaaaaaaaaa.###",
".aa.............",
".aa.aaaabbbbbbb.",
".aa.abbbbbbbbbb.",
".a.aabbbbbbbbb.#",
".a.abbbbbbbbbb.#",
".a.bbbbbbbbccccc",
"..bbbbbbbbbcdddd",
"..bbbbbbbbbcdccc",
"..bbbbbbbbbcdcdd",
".bbbbbbeeeecdccd",
"...........cdddd"};
