/* XPM */
static const char *workrotatelocal[]={
"16 16 2 1",
". c None",
"# c #000000",
"................",
".......#####....",
"......#.....#...",
".....#......##..",
".....#.......#..",
".....#.......#..",
".....#....#.##..",
"......#...####..",
"..........###...",
"..........####..",
"................",
"................",
"................",
"................",
"................",
"................"};
