/* XPM */
static const char *workflipsmart[]={
"16 16 5 1",
". c None",
"# c #000000",
"c c #008000",
"a c #00c000",
"b c #00ff00",
"................",
"................",
"......###.......",
".....#...#.#....",
"....#.....##....",
"....#....###....",
"................",
"....aaaaaaa.....",
"...baaaaaaaac...",
"..bbbaaaaaaccc..",
".bbbbb....ccccc.",
"bbbbb......ccccc",
".bbb........ccc.",
"..b..........c..",
"................",
"................"};
