/* XPM */
static const char *workloadgroup[]={
"16 13 7 1",
"# c None",
"e c #000000",
". c #404000",
"c c #c0c000",
"b c #ffff00",
"a c #ffffc0",
"d c #ffffff",
"....############",
".aaa.###########",
".aaa.......#####",
".aaaaaaaaaa.####",
".aaa...........#",
".aa.aaaaaaaaab.#",
".aa.abbbbbbbbc.#",
".a.abbbbbbbddddd",
".a.abbbbbbbdeeed",
"..abbbbbbbbdeddd",
"..abbbbbbbbdeded",
".bbccccccccdeeed",
"...........ddddd"};
