/* XPM */
static const char *worknewgroup[]={
"16 16 4 1",
". c None",
"# c #000000",
"b c #a0a0a0",
"a c #ffffff",
".#..............",
".#..............",
"....##########..",
".#..#aaaaaaaa#..",
".#..#ab####ba#..",
"....#a#aaaa#a#..",
".#..#a#aaaa#a#..",
".#..#a#aaaa#a#..",
"..###a#aaaa#a#..",
".#..#a#aaaa#a#..",
".#..#a#aaaa#a#..",
"....#ab####ba#..",
".#..#aaaaaaaa#..",
".#..##########..",
"................",
".#.............."};
