/* XPM */
static const char *workdeleteshape[]={
"16 16 8 1",
". c None",
"# c #000000",
"a c #303030",
"d c #585858",
"f c #808000",
"b c #808080",
"c c #a0a0a0",
"e c #ffffc0",
"......####......",
"...###aaaa###...",
".a#bbb####bbb#a.",
".##bbbbbbbbbb##.",
".#a##########a#.",
".a#aaaaaaaaaa#a.",
"..a##########a..",
"..#cbbbbddddd#..",
"..#bb#bd#dd#d#..",
"..#cb#bb#ddeeeee",
"..#bb#bd#ddef##f",
"..#cb#bb#dde#ee#",
"..#bb#bd#dde##fe",
"..#cb#bb#ddeef##",
"..##bbbdddde#ee#",
"....#######ef##f"};
