/* XPM */
static const char *workselect[]={
"16 16 3 1",
". c None",
"a c #000000",
"# c #303030",
"................",
".aa.aa.aa.aa.aa.",
".a............a.",
"................",
".a............a.",
".a............a.",
"................",
".a............a.",
".a............a.",
"................",
".a............a.",
".a............a.",
"................",
".a............a.",
".aa.aa.aa.aa.aa.",
"................"};
