/* XPM */
static const char *fileopen[]={
"16 16 7 1",
". c None",
"a c #404000",
"# c #808000",
"b c #a0a0a0",
"d c #ffff00",
"c c #ffffc0",
"e c #ffffff",
"................",
".#aaaa#.........",
".abbbba.........",
".abbbb#aaaa#....",
".abbbbbbbbba....",
".abbaaaaaaaaaa#.",
".abacccccccccda.",
".abaceeccccccda.",
".abacecccccccda.",
".aacccccccccda..",
".aacccccccccda..",
".accccccccccda..",
".acccccccccda...",
".accdddddddda...",
".#aaaaaaaaaa#...",
"................"};
