/* XPM */
static const char *workmove[]={
"16 16 2 1",
". c None",
"# c #000000",
"................",
".......##.......",
"......####......",
".....######.....",
".......##.......",
"...#...##...#...",
"..##...##...##..",
".##############.",
".##############.",
"..##...##...##..",
"...#...##...#...",
".......##.......",
".....######.....",
"......####......",
".......##.......",
"................"};
