/* XPM */
static const char *workextrude[]={
"16 16 3 1",
". c None",
"# c #000000",
"a c #ff0000",
"...#............",
"...#............",
"...#............",
"..###......aaa..",
"###.#aa.aa.a.a..",
"..###......aaa..",
"...#............",
"...#........a...",
"...#........a...",
"...#............",
"..###......aaa..",
"###.#aa.aa.a.a..",
"..###......aaa..",
"...#............",
"...#............",
"...#............"};
