/* XPM */
static const char *workflip[]={
"16 16 3 1",
". c None",
"# c #000000",
"a c #00c000",
"......#.........",
"......##........",
"....#####..a....",
"...##.##..aaa...",
"...#..#..aaaaa..",
"..#.....aaaaa...",
"..#....aaaaa....",
"..#...aaaaa.....",
".....aaaaa...#..",
"....aaaaa....#..",
"...aaaaa.....#..",
"..aaaaa..#..#...",
".aaaaa..##.##...",
"..aaa..#####....",
"...a....##......",
".........#......"};
