/* XPM */
static const char *filenew[]={
"16 16 7 1",
". c None",
"a c #404000",
"# c #808000",
"c c #c0c000",
"e c #ffff00",
"b c #ffffc0",
"d c #ffffff",
"................",
"...#aaaaa#......",
"...abbbbbc#.....",
"...abdddbcc#....",
"...abddbb####...",
"...abdbbbbbea...",
"...abbbbbbbea...",
"...abbbbbbbea...",
"...abbbbbbbea...",
"...abbbbbbbea...",
"...abbbbbbbea...",
"...abbbbbbbea...",
"...abbbbbbeea...",
"...abeeeeeeea...",
"...#aaaaaaaa#...",
"................"};
