/* XPM */
static const char *workmovegroup[]={
"16 16 3 1",
". c None",
"a c #000000",
"# c #00c000",
"................",
"..##...aa.......",
".#....aaaa......",
".#.##aaaaaa.....",
".#..#..aa.......",
"..##...aa...a...",
"..aa...aa...aa..",
".aaaaaaaaaaaaaa.",
".aaaaaaaaaaaaaa.",
"..aa...aa...aa..",
"...a...aa...a...",
".......aa.......",
".....aaaaaa.....",
"......aaaa......",
".......aa.......",
"................"};
