/* XPM */
static const char *workcopy[]={
"16 16 8 1",
". c None",
"a c #000000",
"b c #585858",
"# c #808080",
"f c #c0c000",
"e c #ffff00",
"c c #ffffc0",
"d c #ffffff",
"................",
".#aaaaaaaab.....",
".acccccccca.....",
".acddddcceaaaa#.",
".acddcccceaffca.",
".acdccccceaffca.",
".acdccccceaffca.",
".accccccceaffca.",
".accccccceaffca.",
".accccccceaffca.",
".acccccceeaffca.",
".aceeeeeeeaffca.",
".#aaaaaaaafffca.",
".....afffffccca.",
".....baaaaaaaa#.",
"................"};
