/* XPM */
static const char *worksnap[]={
"16 16 3 1",
". c None",
"# c #000000",
"a c #808080",
"................",
".#a..........a#.",
".a#a........a#a.",
"..a#a.#..#.a#a..",
"...a###..###a...",
"....###..###....",
"...####..####...",
"................",
"................",
"...####..####...",
"....###..###....",
"...a###..###a...",
"..a#a.#..#.a#a..",
".a#a........a#a.",
".#a..........a#.",
"................"};
