/* XPM */
static const char *worknewvertex[]={
"16 16 2 1",
". c None",
"# c #303030",
"................",
".###............",
".#.#............",
".###............",
"................",
"................",
"................",
"................",
"................",
"................",
"................",
"................",
"................",
"................",
"................",
"................"};
