/* XPM */
static const char *workresizelocal[]={
"16 16 5 1",
". c None",
"# c #000000",
"c c #585858",
"b c #808080",
"a c #c3c3c3",
"................",
".....####.......",
".....###........",
".....###........",
".....#..#a......",
"........a#b...#.",
".........b#c.##.",
"..........c####.",
"...........####.",
"..........#####.",
".........######.",
"................",
"................",
"................",
"................",
"................"};
