/* XPM */
static const char *workhideselected[]={
"16 16 3 1",
". c None",
"a c #000000",
"# c #808080",
"................",
"################",
"..aaa...........",
"..a.aaa.........",
"################",
"...a......aaa.a.",
"...a........aaa.",
"################",
"..a..........a..",
"..a..........a..",
"################",
".aaa........aaa.",
".a.aaaaaaaaaa.a.",
"################",
"..a..........a..",
"..a..........a.."};
