/* XPM */
static const char *workdeletepolygon[]={
"16 16 7 1",
". c None",
"# c #000000",
"a c #303030",
"d c #585858",
"b c #808080",
"c c #a0a0a0",
"e c #ffffff",
"......####......",
"...###aaaa###...",
".a#bbb####bbb#a.",
".##bbbbbbbbbb##.",
".#a##########a#.",
".a#aaaaaaaaaa#a.",
"..a##########a..",
"..#cbbbbddd#d#..",
"..#bb#bd#d#e##..",
"..#cb#bb#d#e##..",
"..#bb#bd##eee#..",
"..#cb#bb##eee#..",
"..#bb#bd#eeeee#.",
"..#cb#bb#eeeee#.",
"..##bbb#eeeeeee#",
"....############"};
