/* XPM */
static const char *workdeletevertex[]={
"16 16 7 1",
". c None",
"# c #000000",
"a c #303030",
"d c #585858",
"b c #808080",
"c c #a0a0a0",
"e c #ffffff",
"......####......",
"...###aaaa###...",
".a#bbb####bbb#a.",
".##bbbbbbbbbb##.",
".#a##########a#.",
".a#aaaaaaaaaa#a.",
"..a##########a..",
"..#cbbbbddddd#..",
"..#bb#bd#dd#d#..",
"..#cb#bb#dd#d#..",
"..#bb#bd#d#####.",
"..#cb#bb#d#eee#.",
"..#bb#bd#d#eee#.",
"..#cb#bb#d#eee#.",
"..##bbbddd#####.",
"....########...."};
