/* XPM */
static const char *workloadgroup[]={
"16 16 8 1",
". c None",
"# c #000000",
"b c #404000",
"a c #808000",
"d c #a0a0a0",
"f c #ffff00",
"e c #ffffc0",
"c c #ffffff",
".........#######",
".abbbba..#ccccc#",
".bddddb..#c###c#",
".bddddabb#c#c#c#",
".bddddddd#c#c#c#",
".bddbbbbbbbbbba#",
".bdbeeeeeeeeefb#",
".bdbecceeeeeefb#",
".bdbeceeeeeeefb.",
".bbeeeeeeeeefb..",
".bbeeeeeeeeefb..",
".beeeeeeeeeefb..",
".beeeeeeeeefb...",
".beeffffffffb...",
".abbbbbbbbbba...",
"................"};
