/* XPM */
static const char *workrotategroup[]={
"16 16 3 1",
". c None",
"a c #000000",
"# c #00c000",
"................",
"..##............",
".#....aaaaa.....",
".#.##a...aaa....",
".#..#......aa...",
"..##........aa..",
"..a.........aa..",
"..a.........aa..",
"..a.........aa..",
"..a.........aa..",
"...a.....a.aaa..",
"....a....aaaa...",
".........aaa....",
".........aaaa...",
"................",
"................"};
