/* XPM */
static const char *workundo[]={
"16 16 3 1",
". c None",
"a c #000000",
"# c #585858",
"................",
"................",
".....#aaaaa.....",
".a.#aa#...#aa...",
".aaa#.......#a..",
".aaa..........a.",
".aaaa...........",
"................",
"................",
"................",
"................",
"................",
"................",
"................",
"................",
"................"};
