/* XPM */
static const char *workpaste[]={
"16 16 7 1",
". c None",
"# c #000000",
"d c #808000",
"c c #c0c000",
"b c #ffff00",
"e c #ffffc0",
"a c #ffffff",
"................",
"......####......",
"..#####aa#####..",
".#bbbb#aa#bbbc#.",
".#bcccc##ccccd#.",
".#bccccccccccd#.",
".#bccccccccccd#.",
".#bcccccc#######",
".#bcccccc#aaaee#",
".#bcccccc#aaeee#",
".#bcccccc#aeeee#",
".#bcccccc#eeeee#",
".#bcccccc#eeeeb#",
".#cdddddd#eeebb#",
".#########eebbb#",
".........#######"};
