/* XPM */
static const char *worknewshape[]={
"16 16 4 1",
". c None",
"# c #000000",
"b c #a0a0a0",
"a c #ffffff",
".#..............",
".#..............",
"....##########..",
".#..#aaaaaaaa#..",
".#..#ab####ba#..",
"....#a#aaaa#a#..",
".#..#a#aaaaaa#..",
".#..#ab##baaa#..",
"..###aaab##ba#..",
".#..#aaaaaa#a#..",
".#..#a#aaaa#a#..",
"....#ab####ba#..",
".#..#aaaaaaaa#..",
".#..##########..",
"................",
".#.............."};
