/* XPM */
static const char *workunselect[]={
"16 16 3 1",
". c None",
"a c #000000",
"# c #ff0000",
".........##...##",
".aa.aa.aa###.###",
".a........#####.",
"...........###..",
".a........#####.",
".a.......###.###",
".........##...##",
".a............a.",
".a............a.",
"................",
".a............a.",
".a............a.",
"................",
".a............a.",
".aa.aa.aa.aa.aa.",
"................"};
