/* XPM */
static const char *worknewpolygon[]={
"16 16 2 1",
". c None",
"# c #303030",
".......#........",
"......##........",
"......#.#.......",
".....#..#.......",
".....#...#......",
"....#....#......",
"....#.....#.....",
"...#......#.....",
"...#.......#....",
"..#........#....",
"..#.........#...",
".#..........#...",
".###.........#..",
"....####.....#..",
"........###...#.",
"...........####."};
